<?xml version="1.0" encoding="iso-8859-1"?>
<!-- Generator: Adobe Illustrator 19.0.0, SVG Export Plug-In . SVG Version: 6.00 Build 0)  -->
<svg version="1.1" id="Layer_1" xmlns="http://www.w3.org/2000/svg" xmlns:xlink="http://www.w3.org/1999/xlink" x="0px" y="0px"
	 viewBox="0 0 512 512" style="enable-background:new 0 0 512 512;" xml:space="preserve">
<rect x="13.128" y="13.128" style="fill:#EFEFEF;" width="485.744" height="485.744"/>
<rect x="13.128" y="13.128" style="fill:#61ACD2;" width="485.744" height="105.026"/>
<circle style="fill:#F4A026;" cx="256" cy="308.513" r="137.846"/>
<path style="fill:#EFEFEF;" d="M312.451,283.569h-28.882v-30.851c0-14.501-11.755-26.256-26.256-26.256
	c-14.501,0-26.256,11.755-26.256,26.256v30.851h-30.195c-14.501,0-26.256,11.755-26.256,26.256s11.755,26.256,26.256,26.256h30.195
	v28.226c0,14.501,11.755,26.256,26.256,26.256c14.501,0,26.256-11.755,26.256-26.256v-28.226h28.882
	c14.501,0,26.256-11.755,26.256-26.256S326.953,283.569,312.451,283.569z"/>
<path d="M498.872,0H13.128C5.877,0,0,5.879,0,13.128v485.744C0,506.121,5.877,512,13.128,512h485.744
	c7.251,0,13.128-5.879,13.128-13.128V13.128C512,5.879,506.123,0,498.872,0z M26.256,26.256h459.487v78.769H26.256V26.256z
	 M26.256,485.744V131.282h459.487v354.462H26.256z"/>
<circle cx="435.2" cy="65.641" r="13.128"/>
<circle cx="382.687" cy="65.641" r="13.128"/>
<circle cx="330.174" cy="65.641" r="13.128"/>
<path d="M256,157.538c-83.247,0-150.974,67.727-150.974,150.974S172.753,459.487,256,459.487s150.974-67.727,150.974-150.974
	S339.247,157.538,256,157.538z M256,433.231c-68.769,0-124.718-55.948-124.718-124.718S187.231,183.795,256,183.795
	s124.718,55.948,124.718,124.718S324.769,433.231,256,433.231z"/>
<path d="M312.451,270.441h-15.754v-17.723c0-21.717-17.668-39.385-39.385-39.385s-39.385,17.668-39.385,39.385v17.723h-17.067
	c-21.717,0-39.385,17.668-39.385,39.385s17.668,39.385,39.385,39.385h17.067v15.097c0,21.717,17.668,39.385,39.385,39.385
	s39.385-17.668,39.385-39.385V349.21h15.754c21.717,0,39.385-17.668,39.385-39.385S334.168,270.441,312.451,270.441z
	 M312.451,322.954h-28.882c-7.251,0-13.128,5.879-13.128,13.128v28.226c0,7.239-5.889,13.128-13.128,13.128
	c-7.239,0-13.128-5.889-13.128-13.128v-28.226c0-7.249-5.878-13.128-13.128-13.128h-30.195c-7.239,0-13.128-5.889-13.128-13.128
	s5.889-13.128,13.128-13.128h30.195c7.251,0,13.128-5.879,13.128-13.128v-30.851c0-7.239,5.889-13.128,13.128-13.128
	c7.239,0,13.128,5.889,13.128,13.128v30.851c0,7.249,5.878,13.128,13.128,13.128h28.882c7.239,0,13.128,5.889,13.128,13.128
	S319.69,322.954,312.451,322.954z"/>
<g>
</g>
<g>
</g>
<g>
</g>
<g>
</g>
<g>
</g>
<g>
</g>
<g>
</g>
<g>
</g>
<g>
</g>
<g>
</g>
<g>
</g>
<g>
</g>
<g>
</g>
<g>
</g>
<g>
</g>
</svg>
